# xmcd CD database file
#
# Track frame offsets:
#	150
#	26491
#	44229
#	62137
#	75055
#	107049
#	131570
#	144955
#	162481
#	192730
#	232412
#	284398
#	297569
#	315491
#
# Disc length: 4516 seconds
#
# Revision: 1
# Processed by: cddbd v1.5.1PL0 Copyright (c) Steve Scherf et al.
# Submitted via: jetAudio 5
#
DISCID=d611a20e
DTITLE=Various Artist - Elmore - Eagle Rock Entertainment Blues and Roots Samp
DTITLE=ler
DYEAR=1900
DGENRE=
TTITLE0=Serves You Right To Suffer
TTITLE1=Funky Mabel
TTITLE2=Trouble In Mind
TTITLE3=Catfish Blue
TTITLE4=Bad Like Jesse James
TTITLE5=Hesitation Blues
TTITLE6=He Said, She Said
TTITLE7=Natural Wonder
TTITLE8=Pretty Woman
TTITLE9=Talk To Your Daughter
TTITLE10=One Bourbon, One Scotch, One Beer
TTITLE11=Cross Roads Blues
TTITLE12=Awestruck and Spellbound
TTITLE13=Chaos in the Neighborhood
EXTD=
EXTT0=
EXTT1=
EXTT2=
EXTT3=
EXTT4=
EXTT5=
EXTT6=
EXTT7=
EXTT8=
EXTT9=
EXTT10=
EXTT11=
EXTT12=
EXTT13=
PLAYORDER=
